<?xml version="1.0" standalone="no"?><svg xmlns:xlink="http://www.w3.org/1999/xlink" xmlns="http://www.w3.org/2000/svg" viewBox="0 0 1000 45.45113250283126" preserveAspectRatio="xMaxYMax slice"><g transform="scale(0.5662514156285391)"><rect x="0" y="0" width="1765.9999999999998" height="80.27272727272727" fill="#F8F9FA"/><circle cx="40.135" cy="40.135" r="8.025" fill="#f6deca"/><circle cx="120.405" cy="40.135" r="8.025" fill="#f49848"/><circle cx="200.675" cy="40.135" r="8.025" fill="#f6e5d6"/><circle cx="280.955" cy="40.135" r="8.025" fill="#f4cfad"/><circle cx="361.22499999999997" cy="40.135" r="8.025" fill="#f7e8db"/><circle cx="441.495" cy="40.135" r="8.025" fill="#f4cfaf"/><circle cx="521.775" cy="40.135" r="8.025" fill="#f8f1eb"/><circle cx="602.045" cy="40.135" r="8.025" fill="#f3882a"/><circle cx="682.3149999999999" cy="40.135" r="8.025" fill="#f7dcc4"/><circle cx="762.5849999999999" cy="40.135" r="8.025" fill="#f2b680"/><circle cx="842.865" cy="40.135" r="8.025" fill="#f3bf91"/><circle cx="923.135" cy="40.135" r="8.025" fill="#f6e5d6"/><circle cx="1003.405" cy="40.135" r="8.025" fill="#f6e6d8"/><circle cx="1083.6750000000002" cy="40.135" r="8.025" fill="#f3c092"/><circle cx="1163.9550000000002" cy="40.135" r="8.025" fill="#f4c9a2"/><circle cx="1244.2250000000001" cy="40.135" r="8.025" fill="#f7e5d6"/><circle cx="1324.4950000000001" cy="40.135" r="8.025" fill="#f3c296"/><circle cx="1404.775" cy="40.135" r="8.025" fill="#f5c092"/><circle cx="1485.045" cy="40.135" r="8.025" fill="#f7e8dc"/><circle cx="1565.315" cy="40.135" r="8.025" fill="#f5d3b5"/><circle cx="1645.585" cy="40.135" r="8.025" fill="#f6e1ce"/><circle cx="1725.865" cy="40.135" r="8.025" fill="#f8efe7"/></g></svg>