<?xml version="1.0" encoding="UTF-8" standalone="no"?>
<svg
   version="1.1"
   preserveAspectRatio="none"
   width="500"
   height="500"
   viewBox="0 0 500 500"
   id="svg29"
   sodipodi:docname="Logo1.svg"
   inkscape:version="1.2.2 (732a01da63, 2022-12-09)"
   xmlns:inkscape="http://www.inkscape.org/namespaces/inkscape"
   xmlns:sodipodi="http://sodipodi.sourceforge.net/DTD/sodipodi-0.dtd"
   xmlns="http://www.w3.org/2000/svg"
   xmlns:svg="http://www.w3.org/2000/svg">
  <defs
     id="defs33" />
  <sodipodi:namedview
     id="namedview31"
     pagecolor="#ffffff"
     bordercolor="#000000"
     borderopacity="0.25"
     inkscape:showpageshadow="2"
     inkscape:pageopacity="0.0"
     inkscape:pagecheckerboard="0"
     inkscape:deskcolor="#d1d1d1"
     showgrid="false"
     inkscape:zoom="2.054"
     inkscape:cx="220.54528"
     inkscape:cy="249.75657"
     inkscape:window-width="3840"
     inkscape:window-height="2050"
     inkscape:window-x="-12"
     inkscape:window-y="-12"
     inkscape:window-maximized="1"
     inkscape:current-layer="svg29" />
  <svg
     viewBox="159.2979 331.3874 390.445 309.1487"
     width="333"
     height="263.6645804146551"
     x="83.5px"
     y="118.1677px"
     preserveAspectRatio="none"
     version="1.1"
     id="svg27">
    <defs
       id="defs4" />
    <style
       id="style6">.companyName {fill:#3B3B6B;fill-opacity:1;}.icon1 {fill:#D24848;fill-opacity:1;}.icon2 {fill:#CCAF60;fill-opacity:1;}.icon3 {fill:#797468;fill-opacity:1;}.icon3-str {stroke:#797468;stroke-opacity:1;}</style>
    <g
       opacity="1"
       transform="rotate(0 159.2979 570.5361)"
       id="g13">
      <svg
         width="390.445"
         height="70"
         x="159.2979"
         y="570.5361"
         version="1.1"
         preserveAspectRatio="none"
         viewBox="1.76 -28.4 160.64 28.8"
         id="svg11">
        <g
           transform="matrix(1 0 0 1 0 0)"
           class="companyName"
           id="g9">
          <path
             id="id-D6z1nYkh6"
             d="M16.72 0.40Q12.48 0.40 9.06-1.46Q5.64-3.32 3.70-6.60Q1.76-9.88 1.76-14L1.76-14Q1.76-18.12 3.72-21.40Q5.68-24.68 9.10-26.54Q12.52-28.40 16.76-28.40L16.76-28.40Q20.20-28.40 23.04-27.20Q25.88-26 27.84-23.72L27.84-23.72L24.48-20.56Q21.44-23.84 17-23.84L17-23.84Q14.12-23.84 11.84-22.58Q9.56-21.32 8.28-19.08Q7-16.84 7-14L7-14Q7-11.16 8.28-8.92Q9.56-6.68 11.84-5.42Q14.12-4.16 17-4.16L17-4.16Q21.44-4.16 24.48-7.48L24.48-7.48L27.84-4.28Q25.88-2 23.02-0.80Q20.16 0.40 16.72 0.40L16.72 0.40Z M38.04-4.36L53.84-4.36L53.84 0L32.84 0L32.84-28L53.28-28L53.28-23.64L38.04-23.64L38.04-16.36L51.56-16.36L51.56-12.08L38.04-12.08L38.04-4.36Z M80.08-23.64L64.84-23.64L64.84-15.12L78.36-15.12L78.36-10.72L64.84-10.72L64.84 0L59.64 0L59.64-28L80.08-28L80.08-23.64Z M104.88 0L102.08-6.48L88.08-6.48L85.32 0L79.96 0L92.56-28L97.68-28L110.32 0L104.88 0ZM89.84-10.56L100.36-10.56L95.08-22.80L89.84-10.56Z M126.44 0.40Q122.20 0.40 118.78-1.46Q115.36-3.32 113.42-6.60Q111.48-9.88 111.48-14L111.48-14Q111.48-18.12 113.44-21.40Q115.40-24.68 118.82-26.54Q122.24-28.40 126.48-28.40L126.48-28.40Q129.92-28.40 132.76-27.20Q135.60-26 137.56-23.72L137.56-23.72L134.20-20.56Q131.16-23.84 126.72-23.84L126.72-23.84Q123.84-23.84 121.56-22.58Q119.28-21.32 118-19.08Q116.72-16.84 116.72-14L116.72-14Q116.72-11.16 118-8.92Q119.28-6.68 121.56-5.42Q123.84-4.16 126.72-4.16L126.72-4.16Q131.16-4.16 134.20-7.48L134.20-7.48L137.56-4.28Q135.60-2 132.74-0.80Q129.88 0.40 126.44 0.40L126.44 0.40Z M147.92 0L147.92-23.60L138.64-23.60L138.64-28L162.40-28L162.40-23.60L153.12-23.60L153.12 0L147.92 0Z" />
        </g>
      </svg>
    </g>
    <g
       opacity="1"
       transform="rotate(0 256.9091 331.3874)"
       id="g25">
      <svg
         width="195.2226"
         height="209.1487"
         x="256.9091"
         y="331.3874"
         version="1.1"
         preserveAspectRatio="none"
         viewBox="21 18.790996551513672 59 63.20876693725586"
         id="svg23">
        <g
           transform="matrix(1 0 0 1 0 0)"
           class="icon1"
           id="g21">
          <g
             id="g19">
            <path
               fill-rule="evenodd"
               clip-rule="evenodd"
               d="M77.112,32.464L50.189,43.737L23.746,32.479C22.154,31.809,21,32.665,21,34.382   v32.741c0,1.714,1.154,3.662,2.746,4.332l23.621,10.043c1.589,0.667,4.131,0.667,5.721,0.012l24.04-10.069   C78.72,70.785,80,68.837,80,67.123V34.382C80,32.665,78.704,31.809,77.112,32.464z"
               id="path15" />
            <path
               fill-rule="evenodd"
               clip-rule="evenodd"
               d="M50.204,39.059l12.488-5.38c0.108-0.67,0.157-1.358,0.157-2.056   c0-7.08-5.58-12.832-12.472-12.832c-6.894,0-12.472,5.752-12.472,12.832c0,0.731,0.061,1.449,0.164,2.132L50.204,39.059z"
               id="path17" />
          </g>
        </g>
      </svg>
    </g>
  </svg>
</svg>
